<svg id="Layer_1" xmlns="http://www.w3.org/2000/svg" viewBox="0 0 455.2 125.1"><style>.st0{fill:#FAA61A;} .st1{fill:#013B82;}</style><path class="st0" d="M311.5 87.6c0-3.3.6-6.3 1.8-9.1 1.3-2.9 3-5.4 5.1-7.5 2.2-2.1 4.6-3.7 7.5-4.9 2.9-1.3 5.9-1.9 9.1-1.9 3.3 0 6.3.6 9.1 1.9 2.9 1.2 5.4 2.8 7.5 4.9 2.1 2.1 3.7 4.6 4.9 7.5 1.3 2.8 1.9 5.9 1.9 9.1v25.3c0 1.5-.5 2.8-1.6 3.8-1 1-2.3 1.6-3.8 1.6s-2.8-.5-3.9-1.6c-1-1-1.6-2.3-1.6-3.8V87.6c0-1.8-.3-3.4-1-4.9-.6-1.5-1.6-2.8-2.8-4-1.1-1.2-2.4-2.1-4-2.8-1.5-.6-3.2-1-4.9-1s-3.4.3-4.9 1c-1.5.6-2.8 1.6-4 2.8-1.1 1.1-2 2.4-2.8 4-.6 1.5-1 3.2-1 4.9v25.3c0 1.5-.5 2.8-1.6 3.8-1 1-2.3 1.6-3.8 1.6s-2.8-.5-3.9-1.6c-1-1-1.6-2.3-1.6-3.8V87.6zM391 64.1c4.6 0 8.8 1 12.8 3.1s7.3 5.1 9.7 8.9c.6.9 1 1.9 1 3 0 1-.2 1.9-.7 2.8-.5.8-1.1 1.4-1.9 1.9-4.9 2.9-9.5 5.6-13.8 8.1-1.8 1-3.7 2.1-5.5 3.2-1.8 1-3.6 2-5.3 3-1.6 1-3.1 1.8-4.5 2.6-1.3.7-2.3 1.3-3.1 1.8 1.4 1.5 3.1 2.7 5.1 3.6 2 .8 4.1 1.2 6.4 1.2 2.7 0 5.3-.6 7.7-1.9 2.4-1.3 4.4-3 5.9-5.3 1.2-1.7 2.7-2.5 4.5-2.5 1.6 0 2.9.6 3.8 1.7 1 1.1 1.6 2.4 1.6 3.7 0 1-.3 2.1-1 3.1-2.5 3.8-5.7 6.7-9.7 8.9-3.9 2.1-8.2 3.1-12.8 3.1-3.7 0-7.2-.7-10.5-2-3.3-1.4-6.2-3.4-8.7-5.9-2.5-2.5-4.5-5.4-5.9-8.7-1.4-3.3-2-6.8-2-10.5 0-3.8.7-7.3 2-10.5 1.4-3.3 3.4-6.2 5.9-8.7 2.5-2.5 5.4-4.4 8.7-5.8 3.1-1.2 6.6-1.9 10.3-1.9zm-16.2 27.1v.8c.1.2.1.5.1.7 1.4-.9 3.2-1.9 5.4-3.1 2.2-1.3 4.5-2.6 6.9-4 2.4-1.4 4.8-2.8 7.1-4.2 2.3-1.4 4.4-2.5 6.1-3.5-2.7-2-5.9-3-9.4-3-2.2 0-4.4.4-6.4 1.3-1.9.8-3.6 2-5.2 3.5-1.4 1.4-2.6 3.2-3.5 5.2-.7 2-1.1 4-1.1 6.3zM449.8 64.1c1.5 0 2.8.5 3.8 1.6 1 1 1.6 2.3 1.6 3.9 0 1.5-.5 2.8-1.6 3.8-1 1-2.3 1.6-3.8 1.6h-13.6v24.4c0 2.3.8 4.2 2.4 5.8 1.6 1.5 3.5 2.3 5.8 2.3 1.5 0 2.8.5 3.8 1.6 1 1 1.6 2.3 1.6 3.9 0 1.5-.5 2.8-1.6 3.8-1 1-2.3 1.6-3.8 1.6-2.6 0-5.1-.5-7.5-1.4-2.2-1-4.3-2.4-6-4.1-1.7-1.7-3-3.6-4.1-5.9-1-2.3-1.4-4.8-1.4-7.5V75H421c-1.5 0-2.8-.5-3.8-1.6-1-1-1.6-2.3-1.6-3.8s.5-2.8 1.6-3.9c1-1 2.3-1.6 3.8-1.6h4.4v-9c0-1.5.5-2.8 1.6-3.8s2.4-1.6 3.9-1.6 2.8.5 3.8 1.6c1 1 1.6 2.3 1.6 3.8v9h13.5z"/><path class="st1" d="M34.3 64.1c1.5 0 2.8.5 3.9 1.6 1 1 1.6 2.3 1.6 3.9 0 1.5-.5 2.8-1.6 3.8-1 1-2.3 1.6-3.9 1.6H20.7v24.4c0 2.3.8 4.2 2.4 5.8 1.6 1.5 3.5 2.3 5.8 2.3 1.5 0 2.8.5 3.8 1.6 1 1 1.6 2.3 1.6 3.9 0 1.5-.5 2.8-1.6 3.8-1 1-2.3 1.6-3.8 1.6-2.6 0-5.1-.5-7.5-1.4-2.2-1-4.3-2.4-6-4.1-1.7-1.7-3-3.6-4.1-5.9-1-2.3-1.4-4.8-1.4-7.5V75H5.4c-1.5 0-2.8-.5-3.8-1.6-1-1-1.6-2.3-1.6-3.8s.5-2.8 1.6-3.9c1-1 2.3-1.6 3.8-1.6h4.4v-9c0-1.5.5-2.8 1.6-3.8s2.4-1.6 3.8-1.6c1.5 0 2.8.5 3.8 1.6 1 1 1.6 2.3 1.6 3.8v9h13.7zM165.8 112.8c0 1.4-.6 2.7-1.7 3.8-1 1-2.3 1.6-3.7 1.6-1.7 0-3-.6-4.1-1.9l-17.5-20.6-2.8 3v14.1c0 1.5-.5 2.8-1.6 3.8-1 1-2.3 1.6-3.9 1.6-1.4 0-2.7-.5-3.8-1.6-1-1-1.6-2.3-1.6-3.8V55.1c0-1.5.5-2.8 1.6-3.9 1.1-1 2.4-1.6 3.8-1.6 1.5 0 2.8.5 3.9 1.6 1 1 1.6 2.3 1.6 3.9v27.8l15.9-17.1c1-1.1 2.4-1.7 4-1.7 1.5 0 2.8.6 3.8 1.7 1 1 1.6 2.2 1.6 3.6s-.5 2.6-1.4 3.7l-13.6 14.7 18.3 21.5c.7 1.1 1.2 2.3 1.2 3.5zM89.3 65.7c1 1 1.6 2.3 1.6 3.8v25.2c0 3.2-.6 6.3-1.9 9.1-1.2 2.8-2.8 5.3-4.9 7.5-2.1 2.1-4.6 3.8-7.4 5-2.8 1.2-5.9 1.8-9.1 1.8-3.2 0-6.3-.6-9.1-1.8-2.8-1.3-5.3-3-7.4-5-2.1-2.2-3.8-4.7-5.1-7.5-1.4-2.8-2-5.8-2-9V69.5c0-1.5.5-2.8 1.6-3.8 1-1 2.3-1.6 3.9-1.6 1.5 0 2.8.5 3.8 1.6 1 1 1.6 2.3 1.6 3.8v25.2c0 1.8.3 3.4 1 4.9.7 1.5 1.6 2.8 2.8 4 1.1 1.1 2.5 2 4 2.8 1.5.6 3.2 1 4.9 1 1.8 0 3.4-.3 4.9-1 1.5-.7 2.8-1.6 4-2.8 1.2-1.1 2.1-2.4 2.8-4 .6-1.5 1-3.2 1-4.9V69.5c0-1.5.5-2.8 1.6-3.8 1-1 2.3-1.6 3.8-1.6 1.3 0 2.6.6 3.6 1.6zM119.1 66.2c1 1 1.6 2.3 1.6 3.7 0 1.5-.5 2.8-1.6 3.8-1 1-2.3 1.6-3.8 1.6-2.3 0-4.2.8-5.8 2.4-1.5 1.5-2.3 3.4-2.3 5.7v29.5c0 1.5-.5 2.8-1.6 3.9-1 1-2.3 1.6-3.8 1.6-1.4 0-2.7-.5-3.7-1.6-1-1-1.6-2.3-1.6-3.9V83.4c0-2.6.5-5 1.4-7.2 1-2.3 2.4-4.3 4.1-6 1.7-1.7 3.7-3 5.9-4 2.3-1 4.8-1.6 7.3-1.6 1.6 0 2.9.5 3.9 1.6zM177.5 81.8c-2-6.1-3-12.5-3-19.2 0-34.5 28-62.6 62.5-62.6 10.7 0 20.4 2.7 29.5 7.4 0 0 4.1 40.3-23.9 73.3 0 0-34.6 5.4-64 1.3l-1.1-.2z"/><path class="st0" d="M181.4 93.2c-1.1-2-2.1-4.1-3-6.2 0 0 34.9 3 58-.9 0 0-8.3 8.9-21.7 16.8 0 0-17.5-2.6-32.8-9.5l-.5-.2zM244.4 84.9s16.8-3 30.8-8.3c0 0-7.3 17.6-14 26.2 0 0-18.2 3.3-38.6 1.1 0 0 15-10 21.4-18.5l.4-.5zM281.2 19.9c5.5 24-4.1 50.5-4.1 50.5-12.9 5.6-27.8 8.6-27.8 8.6 23.4-30.7 21.3-68.5 21.3-68.5 3.8 2.6 7.3 5.6 10.5 8.9l.1.5zM297.7 57.8c-5.2 5.6-14.5 9.8-14.5 9.8 6-18.6 4.4-40 4.4-40 5.9 8.6 9.7 18.8 10.6 29.8l-.5.4zM290.9 91.6c-7.9 5.9-22.8 9.6-22.8 9.6 7.1-9.4 13-27.1 13-27.1 11.4-4.9 17.3-10 17.3-10-.2 9.9-2.7 19.2-7 27.4l-.5.1zM252.2 122.7c8.2-8.2 13-15.5 13-15.5 11.7-2.4 21.4-6.4 21.4-6.4-8.6 11.1-20.8 19.2-34.9 22.6l.5-.7zM202.1 114.6c6-2.3 13.5-6.6 13.5-6.6 23.1 3.3 41.2.5 41.2.5-9.4 12-16 16.3-16 16.3-1.6.1-3.3.2-4.9.2-12.7 0-24.5-3.8-34.3-10.2l.5-.2zM187.1 101.2c7.7 2.9 20.5 5.6 20.5 5.6-8.2 3.6-11.2 4.3-11.2 4.3-3.7-3-7-6.4-9.9-10.1l.6.2zM238.7 43.2c1.2-.3 2.2.5 2.2 1.6 0 .7-.4 1.5-1.1 2l-7.3 5.7 2.8 6.6.1.2s.1.3.1.5c0 1.1-1 2.3-2.3 2.5-.5.1-1 .1-1.4-.2l-6.4-3.6-6.6 6.2-.2.2c-.4.3-.8.6-1.3.7-1.3.3-2.3-.4-2.3-1.6 0-.3 0-.5.2-.9l3.2-7.9-7.2-2.8-.2-.1c-.6-.3-.9-.8-1-1.5 0-1.2 1-2.3 2.3-2.6h.2l8.6-1.2 2.3-8.3c.3-1 1.2-1.8 2.2-2 1.1-.2 2.1.3 2.3 1.2l1.9 7.4 8.9-2.1zM224.6 11.4c.8-.3 1.5-.1 1.5.4 0 .3-.3.7-.7 1l-4.8 3.5 1.9 2.6.1.1s.1.1.1.2c0 .5-.7 1.2-1.5 1.5-.4.1-.7.2-.9.1L216 20l-4.4 3.8-.1.1c-.3.2-.6.4-.9.5-.8.3-1.5.1-1.5-.4 0-.1 0-.2.1-.4l2.2-4.1-4.7-.3h-.1c-.4 0-.6-.2-.6-.5 0-.5.7-1.2 1.5-1.5h.2l5.7-1.7 1.6-4c.2-.5.8-1 1.5-1.2.7-.2 1.3-.2 1.5.2l1.3 3 5.3-2.1zM193.7 41.2c.4-.4.8-.3 1 .2.1.3.1.8 0 1.2l-1.5 4.5 2.1 2.4.1.1s.1.1.1.2c.2.5 0 1.3-.3 1.7-.2.2-.3.3-.5.3l-2.8-.1-1.2 4.5v.1c-.1.2-.2.5-.3.7-.4.4-.8.4-1-.2-.1-.1-.1-.2-.1-.5l-.2-4.5-2.9.4h-.1c-.2 0-.4-.1-.6-.5-.2-.5-.1-1.3.3-1.8l.1-.1 2.7-2.7-.6-4.4c-.1-.5.1-1.1.4-1.5.3-.4.7-.4 1 0l1.9 3 2.4-3z"/></svg>